<svg xmlns="http://www.w3.org/2000/svg" width="1200" height="630" viewBox="0 0 1200 630" role="img" aria-label="Global MAR Screener social preview">
  <defs>
    <linearGradient id="bg" x1="0" x2="1" y1="0" y2="1">
      <stop offset="0%" stop-color="#0d3140"/>
      <stop offset="50%" stop-color="#184e63"/>
      <stop offset="100%" stop-color="#277681"/>
    </linearGradient>
    <radialGradient id="glow1" cx="50%" cy="50%" r="50%">
      <stop offset="0%" stop-color="#9ff3de" stop-opacity="0.65"/>
      <stop offset="100%" stop-color="#9ff3de" stop-opacity="0"/>
    </radialGradient>
    <radialGradient id="glow2" cx="50%" cy="50%" r="50%">
      <stop offset="0%" stop-color="#ffffff" stop-opacity="0.32"/>
      <stop offset="100%" stop-color="#ffffff" stop-opacity="0"/>
    </radialGradient>
  </defs>

  <rect width="1200" height="630" fill="url(#bg)"/>

  <circle cx="900" cy="210" r="220" fill="url(#glow1)"/>
  <circle cx="1010" cy="420" r="210" fill="url(#glow2)"/>
  <circle cx="230" cy="130" r="120" fill="#ffffff" opacity="0.06"/>

  <g opacity="0.28">
    <path d="M60 470c110-55 188-70 268-46 72 22 129 22 203-8 72-28 122-30 190-7 72 24 119 22 199-14" fill="none" stroke="#d7f3ef" stroke-width="12" stroke-linecap="round"/>
    <path d="M90 400c88-45 148-56 206-37 58 18 109 19 167-6 58-25 105-28 160-10 62 20 117 18 187-12" fill="none" stroke="#9fe6da" stroke-width="8" stroke-linecap="round"/>
  </g>

  <circle cx="865" cy="246" r="94" fill="none" stroke="#ffffff" stroke-opacity="0.6" stroke-width="12"/>
  <circle cx="865" cy="246" r="38" fill="#b9fff0" fill-opacity="0.78"/>
  <path d="M812 248c16-12 31-17 49-13 15 4 28 5 55-8" fill="none" stroke="#ffffff" stroke-width="10" stroke-linecap="round"/>

  <text x="78" y="240" fill="#ffffff" font-family="Segoe UI, Arial, sans-serif" font-size="72" font-weight="700">Global MAR</text>
  <text x="78" y="324" fill="#ffffff" font-family="Segoe UI, Arial, sans-serif" font-size="72" font-weight="700">Screener</text>
</svg>
